<?xml version="1.0" encoding="UTF-8"?>
<svg xmlns="http://www.w3.org/2000/svg" xmlns:xlink="http://www.w3.org/1999/xlink" width="32px" height="32px" viewBox="0 0 32 32" version="1.1">
<g id="surface1">
<path style="fill:none;stroke-width:2;stroke-linecap:round;stroke-linejoin:round;stroke:rgb(23.137255%,50.980395%,96.470588%);stroke-opacity:1;stroke-miterlimit:4;" d="M 20.000977 12.999023 C 20.000977 18 16.5 20.499023 12.339844 21.949219 C 12.123047 22.022461 11.885742 22.019531 11.668945 21.94043 C 7.5 20.499023 3.999023 18 3.999023 12.999023 L 3.999023 6 C 3.999023 5.446289 4.447266 5.000977 5.000977 5.000977 C 6.999023 5.000977 9.500977 3.799805 11.241211 2.279297 C 11.677734 1.907227 12.322266 1.907227 12.758789 2.279297 C 14.510742 3.808594 17.000977 5.000977 18.999023 5.000977 C 19.552734 5.000977 20.000977 5.446289 20.000977 6 Z M 20.000977 12.999023 " transform="matrix(1.333333,0,0,1.333333,0,0)"/>
</g>
</svg>
